<?xml version="1.0" standalone="no"?><!DOCTYPE svg PUBLIC "-//W3C//DTD SVG 1.1//EN" "http://www.w3.org/Graphics/SVG/1.1/DTD/svg11.dtd"><svg xmlns="http://www.w3.org/2000/svg" viewBox="0 0 450 200" version="1.1"><clipPath id="box"><rect x="0" y="0" width="450" height="200" style="fill:none;stroke:none;" /></clipPath><g clip-path="url(#box)"><rect x="0.00" y="0.00" width="450.00" height="200.00" style="fill:#FFFFFF;stroke:none;" /><path d="M0.00 200.00 L450.00 200.00 M0.00 150.00 L450.00 150.00 M0.00 100.00 L450.00 100.00 M0.00 50.00 L450.00 50.00 M0.00 0.00 L450.00 0.00 M17.00 0.00 L17.00 200.00 M51.00 0.00 L51.00 200.00 M86.00 0.00 L86.00 200.00 M121.00 0.00 L121.00 200.00 M155.00 0.00 L155.00 200.00 M190.00 0.00 L190.00 200.00 M225.00 0.00 L225.00 200.00 M259.00 0.00 L259.00 200.00 M294.00 0.00 L294.00 200.00 M328.00 0.00 L328.00 200.00 M363.00 0.00 L363.00 200.00 M398.00 0.00 L398.00 200.00 M432.00 0.00 L432.00 200.00 " style="fill:none;stroke:#D0D0D0;stroke-width:1;" /><path d="M225.00 0.00 L225.00 200.00 " style="fill:none;stroke:#000000;stroke-width:1;" /><path d="M220.50 200.00 L229.50 200.00 M220.50 150.00 L229.50 150.00 M220.50 100.00 L229.50 100.00 M220.50 50.00 L229.50 50.00 M220.50 0.00 L229.50 0.00 " style="fill:none;stroke:#000000;stroke-width:1;" /><path d="M0.00 100.00 L450.00 100.00 " style="fill:none;stroke:#000000;stroke-width:1;" /><path d="M-17.31 95.50 L-17.31 104.50 M17.31 95.50 L17.31 104.50 M51.92 95.50 L51.92 104.50 M86.54 95.50 L86.54 104.50 M121.15 95.50 L121.15 104.50 M155.77 95.50 L155.77 104.50 M190.38 95.50 L190.38 104.50 M225.00 95.50 L225.00 104.50 M259.62 95.50 L259.62 104.50 M294.23 95.50 L294.23 104.50 M328.85 95.50 L328.85 104.50 M363.46 95.50 L363.46 104.50 M398.08 95.50 L398.08 104.50 M432.69 95.50 L432.69 104.50 " style="fill:none;stroke:#000000;stroke-width:1;" /><text x="230.625" y="152.5" text-anchor="start" style="font:10px Droid Sans,Trebuchet MS,Arial,Helvetica,sans-serif;stroke:none;fill:#030303">-2</text><text x="230.625" y="102.5" text-anchor="start" style="font:10px Droid Sans,Trebuchet MS,Arial,Helvetica,sans-serif;stroke:none;fill:#030303">0</text><text x="230.625" y="52.5" text-anchor="start" style="font:10px Droid Sans,Trebuchet MS,Arial,Helvetica,sans-serif;stroke:none;fill:#030303">2</text><text x="17.30769230769231" y="113.625" text-anchor="middle" style="font:10px Droid Sans,Trebuchet MS,Arial,Helvetica,sans-serif;stroke:none;fill:#030303">-6</text><text x="51.92307692307693" y="113.625" text-anchor="middle" style="font:10px Droid Sans,Trebuchet MS,Arial,Helvetica,sans-serif;stroke:none;fill:#030303">-5</text><text x="86.53846153846155" y="113.625" text-anchor="middle" style="font:10px Droid Sans,Trebuchet MS,Arial,Helvetica,sans-serif;stroke:none;fill:#030303">-4</text><text x="121.15384615384615" y="113.625" text-anchor="middle" style="font:10px Droid Sans,Trebuchet MS,Arial,Helvetica,sans-serif;stroke:none;fill:#030303">-3</text><text x="155.76923076923077" y="113.625" text-anchor="middle" style="font:10px Droid Sans,Trebuchet MS,Arial,Helvetica,sans-serif;stroke:none;fill:#030303">-2</text><text x="190.3846153846154" y="113.625" text-anchor="middle" style="font:10px Droid Sans,Trebuchet MS,Arial,Helvetica,sans-serif;stroke:none;fill:#030303">-1</text><text x="225" y="113.625" text-anchor="middle" style="font:10px Droid Sans,Trebuchet MS,Arial,Helvetica,sans-serif;stroke:none;fill:#030303">0</text><text x="259.6153846153846" y="113.625" text-anchor="middle" style="font:10px Droid Sans,Trebuchet MS,Arial,Helvetica,sans-serif;stroke:none;fill:#030303">1</text><text x="294.2307692307692" y="113.625" text-anchor="middle" style="font:10px Droid Sans,Trebuchet MS,Arial,Helvetica,sans-serif;stroke:none;fill:#030303">2</text><text x="328.8461538461538" y="113.625" text-anchor="middle" style="font:10px Droid Sans,Trebuchet MS,Arial,Helvetica,sans-serif;stroke:none;fill:#030303">3</text><text x="363.46153846153845" y="113.625" text-anchor="middle" style="font:10px Droid Sans,Trebuchet MS,Arial,Helvetica,sans-serif;stroke:none;fill:#030303">4</text><text x="398.07692307692304" y="113.625" text-anchor="middle" style="font:10px Droid Sans,Trebuchet MS,Arial,Helvetica,sans-serif;stroke:none;fill:#030303">5</text><text x="432.6923076923077" y="113.625" text-anchor="middle" style="font:10px Droid Sans,Trebuchet MS,Arial,Helvetica,sans-serif;stroke:none;fill:#030303">6</text><path d="M-10.00 100.00 L-0.25 100.00 L0.75 100.00 L2.75 100.00 L4.75 100.00 L6.75 100.00 L8.75 100.00 L10.75 100.00 L12.75 100.00 L14.75 100.00 L16.75 100.00 L18.75 100.00 L20.75 100.00 L22.75 100.00 L24.75 100.00 L26.75 100.00 L28.75 100.00 L30.75 100.00 L32.75 100.00 L34.75 100.00 L36.75 100.00 L38.75 100.00 L40.75 100.00 L42.75 100.00 L44.75 100.00 L46.75 100.00 L48.75 100.00 L50.75 100.00 L52.75 100.00 L54.75 100.00 L56.75 100.00 L58.75 100.00 L60.75 100.00 L62.75 100.00 L64.75 100.00 L66.75 100.00 L68.75 100.00 L70.75 100.00 L72.75 100.00 L74.75 100.00 L76.75 100.00 L78.75 100.00 L80.75 100.00 L82.75 100.00 L84.75 100.00 L86.75 100.00 L88.75 100.00 L90.75 100.00 L92.75 100.00 L94.75 100.00 L96.75 100.00 L98.75 100.00 L100.75 100.00 L102.75 100.00 L104.75 100.00 L106.75 100.00 L108.75 100.00 L110.75 100.00 L112.75 100.00 L114.75 100.00 L116.75 100.00 L118.75 100.00 L120.75 100.00 L122.75 100.00 L124.75 100.00 L126.75 100.00 L128.75 100.00 L130.75 100.00 L132.75 100.00 L134.75 100.00 L136.75 100.00 L138.75 100.00 L140.75 100.00 L142.75 100.00 L144.75 100.00 L146.75 100.00 L148.75 100.00 L150.75 100.00 L152.75 100.00 L154.75 100.00 L156.75 100.00 L158.75 100.00 L160.75 100.00 L162.75 100.00 L164.75 100.00 L166.75 100.00 L168.75 100.00 L170.75 100.00 L172.75 100.00 L174.75 100.00 L176.75 100.00 L178.75 100.00 L180.75 100.00 L182.75 100.00 L184.75 100.00 L186.75 100.00 L188.75 100.00 L190.75 100.00 L192.75 100.00 L194.75 100.00 L196.75 100.00 L198.75 100.00 L200.75 100.00 L202.75 100.00 L204.75 100.00 L206.75 100.00 L208.75 100.00 L210.75 100.00 L212.75 100.00 L214.75 100.00 L216.75 100.00 L218.75 100.00 L220.75 100.00 L222.75 100.00 L224.75 100.00 L226.75 98.74 L228.33 97.59 L229.72 96.59 L231.10 95.59 L232.49 94.59 L233.87 93.59 L235.26 92.59 L236.64 91.59 L238.02 90.59 L239.41 89.59 L240.79 88.59 L242.18 87.59 L243.56 86.59 L244.95 85.59 L246.33 84.59 L247.72 83.59 L249.10 82.59 L250.49 81.59 L251.87 80.59 L253.26 79.59 L254.64 78.59 L256.02 77.59 L257.41 76.59 L258.79 75.59 L260.18 74.59 L261.56 73.59 L262.95 72.59 L264.33 71.59 L265.72 70.59 L267.10 69.59 L268.49 68.59 L269.87 67.59 L271.26 66.59 L272.64 65.59 L274.02 64.59 L275.41 63.59 L276.79 62.59 L278.18 61.59 L279.56 60.59 L280.95 59.59 L282.33 58.59 L283.72 57.59 L285.10 56.59 L286.49 55.59 L287.87 54.59 L289.26 53.59 L290.64 52.59 L292.02 51.59 L293.41 50.59 L294.79 49.59 L296.18 48.59 L297.56 47.59 L298.95 46.59 L300.33 45.59 L301.72 44.59 L303.10 43.59 L304.49 42.59 L305.87 41.59 L307.26 40.59 L308.64 39.59 L310.02 38.59 L311.41 37.59 L312.79 36.59 L314.18 35.59 L315.56 34.59 L316.95 33.59 L318.33 32.59 L319.72 31.59 L321.10 30.59 L322.49 29.59 L323.87 28.59 L325.26 27.59 L326.64 26.59 L328.02 25.59 L329.41 24.59 L330.79 23.59 L332.18 22.59 L333.56 21.59 L334.95 20.59 L336.33 19.59 L337.72 18.59 L339.10 17.59 L340.49 16.59 L341.87 15.59 L343.26 14.59 L344.64 13.59 L346.02 12.59 L347.41 11.59 L348.79 10.59 L350.18 9.59 L351.56 8.59 L352.95 7.59 L354.33 6.59 L355.72 5.59 L357.10 4.59 L358.49 3.59 L359.87 2.59 L361.26 1.59 L362.64 0.59 L364.02 -0.41 " style="fill:none;stroke:#11BCF0;stroke-width:1;" /></g></svg>